<?xml version="1.0" standalone="no"?><!-- Generator: Gravit.io --><svg xmlns="http://www.w3.org/2000/svg" xmlns:xlink="http://www.w3.org/1999/xlink" style="isolation:isolate" viewBox="0 0 528 120" width="528" height="120"><rect x="0" y="0" width="149" height="60" transform="matrix(1,0,0,1,0,0)" fill="rgb(74,134,232)"/><g transform="matrix(1,0,0,1,12.5,4)"><text transform="matrix(1,0,0,1,34.672,21.377)" style="font-family:'Open Sans';font-weight:400;font-size:20px;font-style:normal;fill:#ffffff;stroke:none;">Entity</text></g><g opacity="0.5"><rect x="0" y="60" width="149" height="34" transform="matrix(1,0,0,1,0,0)" fill="rgb(74,134,232)"/></g><g transform="matrix(1,0,0,1,12.5,64)"><text transform="matrix(1,0,0,1,1.645,21.377)" style="font-family:'Open Sans';font-weight:400;font-size:20px;font-style:normal;fill:#ffffff;stroke:none;">Composition</text></g><g opacity="0.5"><rect x="189.5" y="60" width="149" height="60" transform="matrix(1,0,0,1,0,0)" fill="rgb(153,0,255)"/></g><g transform="matrix(1,0,0,1,202,64)"><text transform="matrix(1,0,0,1,39.057,21.377)" style="font-family:'Open Sans';font-weight:400;font-size:20px;font-style:normal;fill:#ffffff;stroke:none;">Data</text><text transform="matrix(1,0,0,1,37.279,48.613)" style="font-family:'Open Sans';font-weight:400;font-size:20px;font-style:normal;fill:#ffffff;stroke:none;">State</text></g><g opacity="0.5"><rect x="379" y="60" width="149" height="60" transform="matrix(1,0,0,1,0,0)" fill="rgb(255,0,255)"/></g><g transform="matrix(1,0,0,1,391.5,64)"><text transform="matrix(1,0,0,1,13.412,21.377)" style="font-family:'Open Sans';font-weight:400;font-size:20px;font-style:normal;fill:#ffffff;stroke:none;">Behaviour</text><text transform="matrix(1,0,0,1,37.001,48.613)" style="font-family:'Open Sans';font-weight:400;font-size:20px;font-style:normal;fill:#ffffff;stroke:none;">Logic</text></g><rect x="189.5" y="0" width="149" height="60" transform="matrix(1,0,0,1,0,0)" fill="rgb(153,0,255)"/><g transform="matrix(1,0,0,1,202,4)"><text transform="matrix(1,0,0,1,5.766,21.377)" style="font-family:'Open Sans';font-weight:400;font-size:20px;font-style:normal;fill:#ffffff;stroke:none;">Component</text></g><rect x="379" y="0" width="149" height="60" transform="matrix(1,0,0,1,0,0)" fill="rgb(255,0,255)"/><g transform="matrix(1,0,0,1,391.5,4)"><text transform="matrix(1,0,0,1,27.26,21.377)" style="font-family:'Open Sans';font-weight:400;font-size:20px;font-style:normal;fill:#ffffff;stroke:none;">System</text></g><line x1="149" y1="32" x2="189.5" y2="32" vector-effect="non-scaling-stroke" stroke-width="1" stroke="rgb(0,0,0)" stroke-linejoin="miter" stroke-linecap="square" stroke-miterlimit="3"/><line x1="338.5" y1="32" x2="379" y2="32" vector-effect="non-scaling-stroke" stroke-width="1" stroke="rgb(0,0,0)" stroke-linejoin="miter" stroke-linecap="square" stroke-miterlimit="3"/></svg>