<svg xmlns="http://www.w3.org/2000/svg" xmlns:xlink="http://www.w3.org/1999/xlink" width="528" height="120" viewBox="0 0 528 120" style="isolation:isolate"><rect width="149" height="60" x="0" y="0" fill="#4A86E8" transform="matrix(1,0,0,1,0,0)"/><g><text fill="#fff" stroke="none" font-family="Open Sans" font-size="20" font-style="normal" font-weight="400" transform="matrix(1,0,0,1,12.5,4) matrix(1,0,0,1,34.672,21.377)">Entity</text></g><g opacity=".5"><rect width="149" height="34" x="0" y="60" fill="#4A86E8" transform="matrix(1,0,0,1,0,0)"/></g><g><text fill="#fff" stroke="none" font-family="Open Sans" font-size="20" font-style="normal" font-weight="400" transform="matrix(1,0,0,1,12.5,64) matrix(1,0,0,1,1.645,21.377)">Composition</text></g><g opacity=".5"><rect width="149" height="60" x="189.5" y="60" fill="#90F" transform="matrix(1,0,0,1,0,0)"/></g><g><text fill="#fff" stroke="none" font-family="Open Sans" font-size="20" font-style="normal" font-weight="400" transform="matrix(1,0,0,1,202,64) matrix(1,0,0,1,39.057,21.377)">Data</text><text fill="#fff" stroke="none" font-family="Open Sans" font-size="20" font-style="normal" font-weight="400" transform="matrix(1,0,0,1,202,64) matrix(1,0,0,1,37.279,48.613)">State</text></g><g opacity=".5"><rect width="149" height="60" x="379" y="60" fill="#F0F" transform="matrix(1,0,0,1,0,0)"/></g><g><text fill="#fff" stroke="none" font-family="Open Sans" font-size="20" font-style="normal" font-weight="400" transform="matrix(1,0,0,1,391.5,64) matrix(1,0,0,1,13.412,21.377)">Behaviour</text><text fill="#fff" stroke="none" font-family="Open Sans" font-size="20" font-style="normal" font-weight="400" transform="matrix(1,0,0,1,391.5,64) matrix(1,0,0,1,37.001,48.613)">Logic</text></g><rect width="149" height="60" x="189.5" y="0" fill="#90F" transform="matrix(1,0,0,1,0,0)"/><g><text fill="#fff" stroke="none" font-family="Open Sans" font-size="20" font-style="normal" font-weight="400" transform="matrix(1,0,0,1,202,4) matrix(1,0,0,1,5.766,21.377)">Component</text></g><rect width="149" height="60" x="379" y="0" fill="#F0F" transform="matrix(1,0,0,1,0,0)"/><g><text fill="#fff" stroke="none" font-family="Open Sans" font-size="20" font-style="normal" font-weight="400" transform="matrix(1,0,0,1,391.5,4) matrix(1,0,0,1,27.26,21.377)">System</text></g><line x1="149" x2="189.5" y1="32" y2="32" stroke="#000" stroke-linecap="square" stroke-linejoin="miter" stroke-miterlimit="3" stroke-width="1" vector-effect="non-scaling-stroke"/><line x1="338.5" x2="379" y1="32" y2="32" stroke="#000" stroke-linecap="square" stroke-linejoin="miter" stroke-miterlimit="3" stroke-width="1" vector-effect="non-scaling-stroke"/></svg>